# xmcd
#
# Track frame offsets: 
#        150
#        13325
#        31135
#        41035
#        55622
#        66285
#        77000
#        87002
#        98675
#        111122
#        124087
#        143600
#        156625
#        168637
#        178987
#        190600
#        199987
#        213445
#        224807
#        238210
#        251485
#
# Disc length: 3569 seconds
#
# Revision: 0
# Processed by: cddbd v1.4PL0 Copyright (c) Steve Scherf et al.
# Submitted via: ExactAudioCopy v0.90b4
#
DISCID=350def15
DTITLE=Various Artist - Soul Hits Volume 2
DYEAR=1900
DGENRE=Soul
TTITLE0=Sam and Dave - Soul Man
TTITLE1=Brooke Benton - Rainy Night In Georgia
TTITLE2=James Brown - Please Please Please
TTITLE3=Percy Sledge - Warm and Tender Love
TTITLE4=The Drifters - Dance With Me
TTITLE5=Brook Benton - Thank You Pretty Baby
TTITLE6=James Brown - Pap's Got A Brand New Bag
TTITLE7=Sam and Dave - Soul Sister Brown Sugar
TTITLE8=Archie Bell and The Drells - Tighten Up
TTITLE9=Dobie Grey - The 'In' Crowd
TTITLE10=James Brown - Sex Machine
TTITLE11=Sam and Dave - I Thank You
TTITLE12=Maxine Brown - Oh Not My Baby
TTITLE13=Brook Benton - Fools Rush In
TTITLE14=The Drifters - Up On The Roof
TTITLE15=Gladys Knight - Every Beat Of My Heart
TTITLE16=Ben E King - Spanish Harlem
TTITLE17=Brook Benton - So Many Ways
TTITLE18=Percy Sledge - When A Man Loves A Woman
TTITLE19=The Drifters - On Broadway
TTITLE20=James Brown - I Got The Fealing
EXTD=
EXTT0=
EXTT1=
EXTT2=
EXTT3=
EXTT4=
EXTT5=
EXTT6=
EXTT7=
EXTT8=
EXTT9=
EXTT10=
EXTT11=
EXTT12=
EXTT13=
EXTT14=
EXTT15=
EXTT16=
EXTT17=
EXTT18=
EXTT19=
EXTT20=
PLAYORDER=
